<mxfile modified="2022-05-05T02:58:06.549Z" host="app.diagrams.net" agent="5.0 (Windows NT 10.0; Win64; x64) AppleWebKit/537.36 (KHTML, like Gecko) Chrome/100.0.4896.127 Safari/537.36 Edg/100.0.1185.50" etag="IYqbyDE1KA6L-WJ3agSL" compressed="false" version="17.5.0" type="google">
  <diagram id="NKSfDkZRmOSxUxKwB7ri" name="DEVELOPMENT VIEW">
    <mxGraphModel grid="1" page="1" gridSize="10" guides="1" tooltips="1" connect="1" arrows="1" fold="1" pageScale="1" pageWidth="827" pageHeight="1169" math="0" shadow="0">
      <root>
        <mxCell id="J5CkqOMK--dU-kvgVaGy-0" />
        <mxCell id="J5CkqOMK--dU-kvgVaGy-1" value="Title" style="" parent="J5CkqOMK--dU-kvgVaGy-0" />
        <mxCell id="J5CkqOMK--dU-kvgVaGy-3" value="Development (Patterns) View" style="text;html=1;strokeColor=none;fillColor=none;align=center;verticalAlign=middle;whiteSpace=wrap;rounded=0;fontSize=48;opacity=30;" vertex="1" parent="J5CkqOMK--dU-kvgVaGy-1">
          <mxGeometry x="160" y="200" width="480" height="320" as="geometry" />
        </mxCell>
        <mxCell id="clFsyeFSdHyiJYf1houk-0" value="About" style="" parent="J5CkqOMK--dU-kvgVaGy-0" />
      </root>
    </mxGraphModel>
  </diagram>
</mxfile>
